<svg width="100" height="100" viewBox="0 0 100 100" fill="none" xmlns="http://www.w3.org/2000/svg">
<path d="M12.5 75V50C12.5 40.0544 16.4509 30.5161 23.4835 23.4835C30.5161 16.4509 40.0544 12.5 50 12.5C59.9456 12.5 69.4839 16.4509 76.5165 23.4835C83.5491 30.5161 87.5 40.0544 87.5 50V75M87.5 79.1667C87.5 81.3768 86.622 83.4964 85.0592 85.0592C83.4964 86.622 81.3768 87.5 79.1667 87.5H75C72.7899 87.5 70.6702 86.622 69.1074 85.0592C67.5446 83.4964 66.6667 81.3768 66.6667 79.1667V66.6667C66.6667 64.4565 67.5446 62.3369 69.1074 60.7741C70.6702 59.2113 72.7899 58.3333 75 58.3333H87.5V79.1667ZM12.5 79.1667C12.5 81.3768 13.378 83.4964 14.9408 85.0592C16.5036 86.622 18.6232 87.5 20.8333 87.5H25C27.2101 87.5 29.3298 86.622 30.8926 85.0592C32.4554 83.4964 33.3333 81.3768 33.3333 79.1667V66.6667C33.3333 64.4565 32.4554 62.3369 30.8926 60.7741C29.3298 59.2113 27.2101 58.3333 25 58.3333H12.5V79.1667Z" stroke="#ED6B6D" stroke-width="10" stroke-linecap="round" stroke-linejoin="round"/>
</svg>
