<?xml version="1.0" encoding="UTF-8"?>
<svg id="Calque_3" xmlns="http://www.w3.org/2000/svg" version="1.1" viewBox="0 0 141.7 141.7">
  <!-- Generator: Adobe Illustrator 30.1.0, SVG Export Plug-In . SVG Version: 2.1.1 Build 136)  -->
  <defs>
    <style>
      .st0 {
        fill: #ed6a6d;
      }

      .st1 {
        fill: #212a37;
      }

      .st2 {
        fill: #fac5a3;
      }

      .st3 {
        fill: #f7f2ea;
      }

      .st4 {
        fill: #ed8366;
      }
    </style>
  </defs>
  <g id="LOGO">
    <circle class="st3" cx="70.9" cy="70.9" r="70.2"/>
    <path class="st0" d="M103.2,23.2c.6,2.6,1,5.3,1,8.1,0,18.4-14.9,33.4-33.4,33.4s-33.4-14.9-33.4-33.4.3-5.5,1-8.1c-15.1,10.3-25,27.7-25,47.4,0,31.7,25.7,57.4,57.4,57.4s57.4-25.7,57.4-57.4-9.9-37.1-25-47.4Z"/>
    <path class="st1" d="M71.4,115.1c18.8-18.8,18.8-49.3,0-68.1,0,0-34.1,34,0,68.1"/>
    <path class="st2" d="M70.9,115.1c24.6-10.2,36.2-38.4,26-63,0,0-44.5,18.4-26,63"/>
    <path class="st2" d="M70.9,115.1c-24.6-10.2-36.2-38.4-26-63,0,0,44.5,18.4,26,63"/>
    <path class="st4" d="M70.9,115.1c-26.6,0-48.2-21.6-48.2-48.2,0,0,48.2-.1,48.2,48.2"/>
    <path class="st4" d="M70.9,115.1c26.6,0,48.2-21.6,48.2-48.2,0,0-48.2-.1-48.2,48.2"/>
  </g>
</svg>