<svg width="20" height="16" viewBox="0 0 20 16" fill="none" xmlns="http://www.w3.org/2000/svg">
<path d="M8.83672 6.52125C8.83672 6.12076 8.52472 5.79599 8.13972 5.79599H6.57972C6.90472 4.14223 8.31172 2.89893 9.99972 2.89893C11.6877 2.89893 13.0947 4.14422 13.4187 5.79798H10.9297C10.5447 5.79798 10.2327 6.12176 10.2327 6.52125C10.2327 6.92174 10.5447 7.24651 10.9297 7.24651H13.4877V8.69504H10.9297C10.5447 8.69504 10.2327 9.01982 10.2327 9.41931C10.2327 9.8198 10.5447 10.1446 10.9297 10.1446H13.4187C13.1407 11.5642 12.0647 12.682 10.6977 12.9699V15.2164C10.6977 15.6159 10.3847 15.9407 9.99972 15.9407C9.61472 15.9407 9.30172 15.6159 9.30172 15.2164V12.9699C7.93472 12.681 6.85872 11.5642 6.58172 10.1446H8.13872C8.52472 10.1446 8.83672 9.8198 8.83672 9.41931C8.83672 9.01882 8.52472 8.69504 8.13972 8.69504H6.51172V7.24651H8.13872C8.52472 7.24651 8.83672 6.92174 8.83672 6.52225" fill="#F8EBE2"/>
<path d="M10 0C6.67 0 3.946 2.69084 3.734 6.093C3.37302 5.89778 2.96873 5.79572 2.558 5.79612C1.145 5.79612 0 6.98563 0 8.45309V10.3858C0 11.8523 1.145 13.0418 2.558 13.0418C2.606 13.0418 2.65367 13.0404 2.701 13.0378V13.0418C4.035 13.0418 5.116 11.919 5.116 10.5332V6.52038C5.116 3.71996 7.303 1.44953 10 1.44953C12.697 1.44953 14.884 3.71996 14.884 6.52038V10.5332C14.884 11.918 15.964 13.0418 17.299 13.0418V13.0378C17.3457 13.0404 17.3933 13.0418 17.442 13.0418C18.855 13.0418 20 11.8523 20 10.3848V8.45209C20 6.98563 18.855 5.79612 17.442 5.79612C17.018 5.79612 16.618 5.90371 16.266 6.093C16.054 2.69084 13.329 0 10 0Z" fill="#F8EBE2"/>
</svg>
